# xmcd
#
# Track frame offsets:
#	150
#	15120
#	27724
#	45662
#	59290
#	72758
#	88933
#	103229
#	123673
#	143560
#	161228
#	180026
#	194614
#	210372
#
# Disc length: 3000 seconds
#
# Revision: 0
# Processed by: cddbd v1.5.1PL0 Copyright (c) Steve Scherf et al.
# Submitted via: EasyCDDAExtractor 8.0.2.1
#
DISCID=bf0bb60e
DTITLE=Various Artist - Mr Music Country  06 2005
DYEAR=1900
DGENRE=Country
TTITLE0=Waylon Jennings - You'll never take Texas out of me
TTITLE1=Brad Lee - Outside lookin' in
TTITLE2=Terri Clark - Better than you
TTITLE3=Lonnie Spiker - A little lonlier than this
TTITLE4=Gary Allan - Guys like me
TTITLE5=Reba McEntire - He gets that from me
TTITLE6=Big Bull Band - Wrong
TTITLE7=Randy Travis - Horse called Music
TTITLE8=Julie Roberts - I can't get over you
TTITLE9=Jackson Taylor Band - Blue agave
TTITLE10=Trisha Yearwood - I don't paint myself into corners
TTITLE11=Rick Sousley - 16 bars from Luchenbach
TTITLE12=Rick Sharp - Luchenbach, Texas (Back to the basics of love)
TTITLE13=Ricky Calmbach - Dance time in Texas
EXTD=
EXTT0=
EXTT1=
EXTT2=
EXTT3=
EXTT4=
EXTT5=
EXTT6=
EXTT7=
EXTT8=
EXTT9=
EXTT10=
EXTT11=
EXTT12=
EXTT13=
PLAYORDER=
